PathFileType	4	(X/Y/Z)	 s02c0303.trc
DataRate	CameraRate	NumFrames	NumMarkers	Units	OrigDataRate	OrigDataStartFrame	OrigNumFrames
200	200	6	50	mm	200	1001	2000
Frame#	Time	racr			lacr			c7			jug			rlel			rdr			llel			ldr			s2			lic			ric			lasi			rasi			rpsi			lpsi			rgt			lgt			rth1			rth2			rth3			rth4			rlfc			rmfc			rsh1			rsh2			rsh3			rsh4			rlmal			rmmal			rtoe			rmt5			rmt1			lth1			lth2			lth4			lth3			llfc			lmfc			lsh1			lsh2			lsh3			lsh4			llmal			lmmal			lcal			ltoe			lmt5			SBIKE			LBIKE			RBIKE			
		X1	Y1	Z1	X2	Y2	Z2	X3	Y3	Z3	X4	Y4	Z4	X5	Y5	Z5	X6	Y6	Z6	X7	Y7	Z7	X8	Y8	Z8	X9	Y9	Z9	X10	Y10	Z10	X11	Y11	Z11	X12	Y12	Z12	X13	Y13	Z13	X14	Y14	Z14	X15	Y15	Z15	X16	Y16	Z16	X17	Y17	Z17	X18	Y18	Z18	X19	Y19	Z19	X20	Y20	Z20	X21	Y21	Z21	X22	Y22	Z22	X23	Y23	Z23	X24	Y24	Z24	X25	Y25	Z25	X26	Y26	Z26	X27	Y27	Z27	X28	Y28	Z28	X29	Y29	Z29	X30	Y30	Z30	X31	Y31	Z31	X32	Y32	Z32	X33	Y33	Z33	X34	Y34	Z34	X35	Y35	Z35	X36	Y36	Z36	X37	Y37	Z37	X38	Y38	Z38	X39	Y39	Z39	X40	Y40	Z40	X41	Y41	Z41	X42	Y42	Z42	X43	Y43	Z43	X44	Y44	Z44	X45	Y45	Z45	X46	Y46	Z46	X47	Y47	Z47	X48	Y48	Z48	X49	Y49	Z49	X50	Y50	Z50	
1001	5.0050	738.278010	1246.326489	-176.885674	695.456874	1239.981269	-509.202260	711.330575	1278.814777	-351.861108	636.570561	1155.914688	-333.086034	643.711083	1019.254961	-46.346164	731.350424	843.316854	-112.516372	551.384314	1003.511373	-599.964832	711.347570	869.165612	-520.291082	177.659090	1201.639688	-284.529247	287.133962	1191.862471	-441.885327	306.505312	1165.486542	-149.132659	325.612689	1150.101520	-420.138043	348.939688	1129.105531	-178.635520	199.711582	1230.007169	-240.918648	203.997440	1239.722300	-326.974609	262.210064	1075.242144	-116.731368	239.167940	1106.144136	-471.683728	323.693771	998.204559	-117.265915	379.854078	929.942452	-115.230707	397.302428	848.128476	-93.832384	409.825242	941.814675	-134.770314	420.849547	710.046294	-122.905320	414.001745	692.514872	-232.227076	362.997711	614.243851	-105.355643	326.846362	533.572450	-121.775326	258.802125	480.509141	-118.915953	339.360574	527.809066	-159.456164	172.195457	387.120028	-126.557126	199.140825	402.812769	-205.512502	243.993391	168.936127	-189.173827	172.144934	248.703440	-125.308541	198.792453	238.307073	-234.714226	352.737876	1031.869410	-499.135098	430.593836	994.531045	-505.321898	453.953094	1018.490309	-486.623070	479.109528	919.429283	-511.224815	553.633219	843.235844	-499.149346	569.226842	816.521113	-392.513746	519.738452	742.847256	-512.706214	496.382094	662.082254	-491.108802	433.036566	598.053137	-488.879851	515.738955	657.012836	-455.651097	362.136389	517.754561	-468.727841	382.376403	512.267130	-392.548437	285.477576	478.735662	-428.428332	562.776403	400.815481	-442.475208	452.696693	404.732529	-501.537687	-126.006863	871.841564	-308.696500	37.242778	86.537836	-514.185830	33.532616	83.573671	-114.287329	
1002	5.0100	737.511817	1249.228279	-177.356646	694.677152	1240.243238	-509.555311	710.331202	1279.951274	-352.269548	636.680862	1156.548305	-332.441039	645.417324	1020.902050	-45.729434	731.465866	843.289965	-112.004533	549.685617	1003.287472	-598.438940	711.058607	869.451679	-520.093658	176.765598	1201.399293	-284.847760	286.758690	1190.241668	-441.469750	305.587778	1167.298998	-149.419113	325.147713	1148.298951	-419.232141	348.467511	1131.217172	-178.624772	198.517608	1231.578542	-241.552468	203.088111	1239.830881	-327.611238	263.509780	1076.648719	-116.063391	237.032188	1103.956263	-470.878563	326.852507	1000.929844	-117.570266	384.275603	933.486797	-116.102914	403.549393	852.237104	-94.556805	413.110642	945.430979	-136.836073	428.556851	714.248327	-122.506009	419.698705	696.336314	-231.744026	367.928878	618.665433	-104.969517	329.883497	538.898133	-121.438891	260.482116	487.650905	-118.253783	342.104634	533.006902	-159.122731	171.366277	396.345401	-125.957086	199.036608	411.027793	-205.630560	238.717474	176.819690	-189.162520	168.502968	258.071893	-125.176709	194.215263	246.980023	-235.054853	349.649708	1028.207522	-498.797332	426.963031	989.739772	-505.872557	450.760479	1013.680306	-487.970266	473.871952	914.089549	-512.881993	547.867139	837.141758	-499.325568	564.363275	809.153574	-394.504293	515.254736	735.131458	-513.393278	494.381256	653.723051	-491.753411	432.755691	588.010820	-488.801200	514.567831	649.078641	-456.939107	364.604150	506.713282	-468.377321	385.322485	501.508573	-392.299572	288.880321	467.130170	-427.648110	567.082189	391.930612	-443.425702	456.374672	394.746340	-501.460697	-125.988797	871.851310	-308.557702	37.219976	86.573489	-514.171104	33.539083	83.564938	-114.278907	
1003	5.0150	736.658964	1252.256718	-177.603780	694.169128	1240.054641	-509.651938	709.442131	1281.205801	-352.624662	636.662359	1157.461402	-331.741429	646.955941	1022.241284	-45.634187	731.633605	843.221796	-111.417823	548.413370	1002.916613	-597.226817	710.862513	869.627054	-519.868114	175.902745	1201.068955	-285.197840	285.379877	1187.961978	-440.969341	304.706740	1168.848578	-149.646133	324.775045	1146.192007	-418.368991	347.984358	1133.201861	-178.854636	197.417951	1232.619972	-242.342041	201.144523	1239.321388	-328.243247	265.080977	1078.180908	-115.230497	234.913129	1101.663445	-470.167940	329.761924	1003.232159	-118.442494	388.503321	936.939352	-117.314608	409.595135	856.268207	-95.282990	416.714349	949.184366	-138.159843	436.095379	718.328818	-122.143339	425.640812	699.788413	-230.353749	373.223704	623.057787	-104.479752	333.236327	544.251783	-121.048517	262.537726	494.580118	-117.686790	345.112481	538.182272	-158.775987	171.225713	405.758486	-125.441929	199.359189	420.032290	-205.218005	234.009359	184.879866	-189.208019	165.565465	267.518105	-125.067416	192.703619	256.612773	-233.982906	346.535080	1024.422392	-498.961716	423.396523	984.660598	-506.195918	447.531307	1008.596792	-489.252201	469.170887	908.350471	-512.853521	541.823858	830.412319	-500.138132	560.090670	802.658375	-395.757218	510.793910	727.783801	-514.068162	492.353215	645.785930	-492.588360	432.464262	578.458286	-488.982097	513.049623	641.642274	-457.874457	366.939197	495.726917	-468.288046	388.079370	490.986940	-392.360649	291.995879	455.807505	-427.433654	570.608789	381.863402	-443.753686	459.679573	384.160963	-501.457751	-125.977078	871.877704	-308.414789	37.240207	86.606583	-514.155998	33.543763	83.559679	-114.267135	
1004	5.0200	735.625420	1255.228382	-177.677066	693.980661	1239.380020	-509.473360	708.583775	1282.347445	-352.855672	636.708474	1158.248964	-330.968697	648.541644	1023.569442	-45.576643	731.872141	843.086854	-110.865679	547.452330	1002.340289	-596.348459	710.703498	869.708897	-519.742345	174.827767	1200.775406	-285.513635	284.839582	1185.783979	-440.557437	303.761990	1169.981303	-149.993497	324.497230	1143.786664	-417.563209	347.429082	1135.002917	-179.330924	196.380134	1233.282615	-243.145013	200.068263	1238.899014	-328.977182	266.510008	1079.366377	-114.385427	232.947351	1099.276844	-469.408412	332.605066	1005.628668	-118.882380	392.507592	940.383871	-118.030654	415.549809	860.260928	-95.918432	420.049912	952.909265	-139.714755	443.300548	722.238663	-121.722417	430.416758	703.363510	-230.365490	378.713639	627.368865	-103.866483	336.175693	549.170499	-121.401072	264.836676	501.925850	-116.973753	348.408554	543.407177	-158.367926	171.618904	415.252552	-124.945282	200.273680	429.092703	-204.761646	229.914391	193.192176	-189.136147	163.239604	277.380911	-124.889763	190.213359	265.851483	-234.027520	343.475737	1020.425603	-499.179396	419.784645	979.329573	-506.465174	444.349872	1003.231638	-490.306242	464.396767	902.478157	-512.818832	536.091493	823.951466	-500.323468	555.970730	796.032255	-396.680606	506.365036	720.816715	-514.621479	490.285628	638.047075	-493.546541	431.976742	569.699155	-489.419943	511.562703	634.263394	-459.103328	369.083047	484.743570	-468.577688	390.491000	480.371616	-392.448086	294.779894	444.780045	-427.610708	573.686715	371.252280	-443.675470	462.692635	373.396442	-501.435799	-125.942878	871.940634	-308.220688	37.259056	86.619994	-514.137998	33.543223	83.573678	-114.268142	
1005	5.0250	734.598866	1258.233188	-177.660751	694.061352	1238.404309	-509.035048	707.826929	1283.364949	-352.887576	637.000337	1158.853950	-329.953049	649.994306	1024.806852	-45.700452	732.102593	842.916760	-110.431771	546.848616	1001.719520	-595.843779	710.552243	869.720796	-519.668574	173.873442	1199.994982	-285.877169	284.550390	1183.453705	-440.056910	302.894408	1170.762109	-150.330685	324.316814	1141.088896	-416.829408	346.855704	1136.630841	-179.870203	195.381571	1233.356192	-243.906038	199.255590	1237.767369	-329.379991	267.913909	1080.384954	-113.668457	231.087992	1096.895944	-468.725665	335.199479	1007.884271	-119.337403	396.226873	943.671847	-118.746029	420.909940	864.296178	-96.482588	423.130294	956.318990	-141.983503	450.380790	726.040285	-121.050921	435.581241	707.090302	-229.825801	384.152828	631.880810	-103.575925	339.464049	555.096306	-121.091805	267.714135	508.558203	-117.109153	351.620988	548.337163	-158.557764	172.413960	424.997031	-124.581757	201.613237	438.324401	-204.181841	226.552987	201.898418	-189.104040	161.540810	287.345621	-124.866086	188.261100	275.297355	-234.171608	340.455609	1016.267879	-499.220162	416.196663	974.189138	-507.194510	441.126363	997.610775	-491.310877	459.363551	896.442044	-513.353083	530.623642	817.447891	-500.903041	551.746660	789.411245	-397.346745	501.930915	714.023501	-515.015812	488.071528	630.709104	-494.597794	431.210843	560.862428	-489.688204	510.034635	627.053200	-460.517858	371.003105	473.682106	-469.019191	392.379224	469.727575	-392.686808	297.030004	433.838695	-427.640876	576.119804	360.306450	-443.392841	465.193195	362.600334	-501.423273	-125.913828	871.944451	-308.185937	37.296892	86.632277	-514.129154	33.888760	83.363888	-114.105561	
1006	5.0300	733.504186	1261.052271	-177.413107	694.366211	1237.300580	-508.408318	707.149840	1284.394469	-352.839951	637.214408	1159.550255	-329.002876	651.254886	1025.950295	-46.006988	733.208201	842.948519	-109.486714	546.456299	1001.097334	-595.618299	710.382512	869.679603	-519.672547	173.125650	1198.660057	-286.316318	284.213749	1180.554727	-439.858247	301.949936	1171.232601	-150.866825	324.236341	1138.104678	-416.182202	346.224574	1137.791587	-180.469654	194.377537	1232.832945	-244.774980	198.395736	1236.435753	-330.294574	269.102270	1081.111293	-113.007971	229.559560	1094.235839	-468.045064	337.435296	1009.878159	-119.629773	399.539092	946.948039	-119.421614	425.952104	868.170472	-96.882507	425.720484	959.587505	-143.618493	457.301610	729.727908	-120.404886	440.879358	710.694654	-229.156412	389.668879	636.433965	-103.408251	343.354192	560.673072	-120.917634	270.505799	515.722135	-116.903979	355.167478	553.792713	-158.537078	173.474096	434.868066	-124.298591	203.289328	447.625965	-203.425114	224.030920	211.126745	-188.978418	160.520657	297.527053	-124.718147	186.918982	285.128277	-234.247249	337.609891	1011.920310	-499.186937	412.584608	968.436919	-507.288348	438.061478	991.666551	-491.989912	454.459162	890.045178	-513.171489	524.994439	810.727790	-500.514860	547.408412	782.546061	-397.759531	497.445748	707.277837	-515.293572	485.625897	623.415495	-495.665419	430.175176	552.515916	-490.313166	508.216991	619.754110	-461.864824	372.452178	462.672932	-469.496057	393.874422	459.047637	-393.511497	298.966035	423.272178	-428.251265	577.902311	348.948514	-443.302975	467.073741	351.496539	-501.414395	-125.855370	871.960618	-308.192416	37.351537	86.604722	-514.100169	33.568126	83.585736	-114.240328	
